<svg xmlns="http://www.w3.org/2000/svg" viewBox="0 0 1200 630" role="img" aria-labelledby="title desc">
  <title id="title">First blog cover</title>
  <desc id="desc">A clean desk scene with notes, code blocks, and a small sunrise window.</desc>
  <rect width="1200" height="630" fill="#f6f1e7"/>
  <rect x="92" y="76" width="1016" height="478" rx="18" fill="#fffaf0" stroke="#d6c8ac" stroke-width="4"/>
  <rect x="158" y="128" width="520" height="318" rx="14" fill="#23201c"/>
  <rect x="194" y="172" width="248" height="18" rx="9" fill="#f58f7c"/>
  <rect x="194" y="218" width="372" height="14" rx="7" fill="#8fd4c1"/>
  <rect x="194" y="254" width="296" height="14" rx="7" fill="#f6d365"/>
  <rect x="194" y="290" width="410" height="14" rx="7" fill="#e6e0d0"/>
  <rect x="744" y="126" width="250" height="180" rx="16" fill="#dbeafe"/>
  <circle cx="814" cy="188" r="42" fill="#f7b267"/>
  <path d="M744 278 C814 220 888 226 994 278 L994 306 L744 306 Z" fill="#4f8f7b"/>
  <rect x="748" y="350" width="258" height="28" rx="14" fill="#e9ddc4"/>
  <rect x="748" y="404" width="190" height="22" rx="11" fill="#cfd8c2"/>
  <rect x="154" y="492" width="892" height="18" rx="9" fill="#d6c8ac"/>
</svg>
